<?xml version="1.0" encoding="UTF-8"?>
<svg version="1.1" xmlns="http://www.w3.org/2000/svg" width="128" height="128">
<path d="M0 0 C42.24 0 84.48 0 128 0 C128 42.24 128 84.48 128 128 C85.76 128 43.52 128 0 128 C0 85.76 0 43.52 0 0 Z " fill="#1C1D1C" transform="translate(0,0)"/>
<path d="M0 0 C2.94644834 1.47322417 5.78529013 2.96888388 8.1328125 5.31640625 C10.82517026 5.55319341 13.49779406 5.7383865 16.1953125 5.87890625 C17.33323242 5.94368164 17.33323242 5.94368164 18.49414062 6.00976562 C20.37346688 6.11614258 22.25311494 6.21680559 24.1328125 6.31640625 C23.8028125 6.97640625 23.4728125 7.63640625 23.1328125 8.31640625 C20.1628125 8.31640625 17.1928125 8.31640625 14.1328125 8.31640625 C18.0928125 10.62640625 22.0528125 12.93640625 26.1328125 15.31640625 C26.7928125 14.65640625 27.4528125 13.99640625 28.1328125 13.31640625 C28.71675781 14.4765625 28.71675781 14.4765625 29.3125 15.66015625 C31.4137202 18.72631449 32.89744967 19.36645378 36.2578125 20.81640625 C38.97265625 22.33984375 38.97265625 22.33984375 41.1328125 24.31640625 C41.85117141 27.57356158 41.81955453 30.5242144 41.7890625 33.85546875 C42.30457183 39.04571045 44.87041738 42.47364188 47.83203125 46.66015625 C49.1328125 49.31640625 49.1328125 49.31640625 48.33984375 52.16015625 C47.94152344 52.87171875 47.54320313 53.58328125 47.1328125 54.31640625 C46.1328125 52.31640625 46.1328125 52.31640625 45.7578125 50.06640625 C45.02391035 46.83723678 43.64795064 44.24945442 42.1328125 41.31640625 C42.13804932 41.92000977 42.14328613 42.52361328 42.14868164 43.14550781 C42.19252191 48.96793916 42.19000626 54.78840831 42.14501953 60.61083984 C42.13499924 62.83173695 42.15852358 65.05276123 42.19140625 67.2734375 C42.05756036 74.36726943 42.05756036 74.36726943 39.35546875 77.140625 C36.66062945 78.9193164 34.408262 80.31640625 31.1328125 80.31640625 C30.8440625 81.28578125 30.5553125 82.25515625 30.2578125 83.25390625 C29.1328125 86.31640625 29.1328125 86.31640625 27.1328125 87.31640625 C27.6278125 85.33640625 27.6278125 85.33640625 28.1328125 83.31640625 C27.14539063 83.88230469 26.15796875 84.44820313 25.140625 85.03125 C23.84637044 85.77216384 22.55209871 86.5130477 21.2578125 87.25390625 C20.60683594 87.62708984 19.95585938 88.00027344 19.28515625 88.38476562 C14.359375 91.203125 14.359375 91.203125 12.1328125 92.31640625 C16.0928125 92.31640625 20.0528125 92.31640625 24.1328125 92.31640625 C24.1328125 92.97640625 24.1328125 93.63640625 24.1328125 94.31640625 C22.92625 94.33058594 21.7196875 94.34476562 20.4765625 94.359375 C10.43679179 94.16746358 10.43679179 94.16746358 1.6328125 98.19140625 C-0.1171875 99.56640625 -0.1171875 99.56640625 -1.8671875 100.31640625 C-4.45531593 99.40294916 -6.5618111 98.07029373 -8.890625 96.62109375 C-12.06360917 95.23031066 -14.43981735 95.16175645 -17.87060547 95.25756836 C-21.46953347 95.35737752 -24.32578239 95.16440093 -27.8671875 94.31640625 C-30.14847153 91.77720635 -31.64245578 89.37568613 -33.11791992 86.30834961 C-35.23096362 81.96549655 -36.91391214 80.33036196 -41.3046875 78.37890625 C-43.8671875 77.10546875 -43.8671875 77.10546875 -45.8671875 75.31640625 C-46.70173667 71.65656041 -46.80875274 68.40366977 -46.70703125 64.65625 C-46.88451542 60.95505568 -47.87724288 59.35825621 -49.8671875 56.31640625 C-49.5371875 55.65640625 -49.2071875 54.99640625 -48.8671875 54.31640625 C-48.2071875 55.30640625 -47.5471875 56.29640625 -46.8671875 57.31640625 C-46.87878906 56.19105469 -46.89039063 55.06570312 -46.90234375 53.90625 C-46.93559836 49.85761235 -46.90527401 45.81119248 -46.86621094 41.76269531 C-46.86710949 39.51183094 -46.93927561 37.27595901 -47.03125 35.02734375 C-47.05440341 31.17615939 -46.96566533 28.01170404 -45.8671875 24.31640625 C-43.28124516 21.88156238 -40.77298809 20.45710966 -37.60546875 18.8671875 C-33.50648896 16.54579666 -31.92305692 13.41034536 -29.8671875 9.31640625 C-29.2071875 8.32640625 -28.5471875 7.33640625 -27.8671875 6.31640625 C-24.99609375 6.015625 -24.99609375 6.015625 -21.4296875 6.00390625 C-15.91855289 5.78436156 -12.70982939 4.9834566 -8.1171875 1.94140625 C-3.64070815 -0.86801625 -3.64070815 -0.86801625 0 0 Z " fill="#F2F2E7" transform="translate(65.8671875,13.68359375)"/>
<path d="M0 0 C2.94644834 1.47322417 5.78529013 2.96888388 8.1328125 5.31640625 C10.82517026 5.55319341 13.49779406 5.7383865 16.1953125 5.87890625 C17.33323242 5.94368164 17.33323242 5.94368164 18.49414062 6.00976562 C20.37346688 6.11614258 22.25311494 6.21680559 24.1328125 6.31640625 C23.8028125 6.97640625 23.4728125 7.63640625 23.1328125 8.31640625 C20.1628125 8.31640625 17.1928125 8.31640625 14.1328125 8.31640625 C18.0928125 10.62640625 22.0528125 12.93640625 26.1328125 15.31640625 C26.7928125 14.65640625 27.4528125 13.99640625 28.1328125 13.31640625 C28.71675781 14.4765625 28.71675781 14.4765625 29.3125 15.66015625 C31.4137202 18.72631449 32.89744967 19.36645378 36.2578125 20.81640625 C38.97265625 22.33984375 38.97265625 22.33984375 41.1328125 24.31640625 C41.85117141 27.57356158 41.81955453 30.5242144 41.7890625 33.85546875 C42.30457183 39.04571045 44.87041738 42.47364188 47.83203125 46.66015625 C49.1328125 49.31640625 49.1328125 49.31640625 48.33984375 52.16015625 C47.94152344 52.87171875 47.54320313 53.58328125 47.1328125 54.31640625 C46.1328125 52.31640625 46.1328125 52.31640625 45.7578125 50.06640625 C45.02391035 46.83723678 43.64795064 44.24945442 42.1328125 41.31640625 C42.13804932 41.92000977 42.14328613 42.52361328 42.14868164 43.14550781 C42.19252191 48.96793916 42.19000626 54.78840831 42.14501953 60.61083984 C42.13499924 62.83173695 42.15852358 65.05276123 42.19140625 67.2734375 C42.05756036 74.36726943 42.05756036 74.36726943 39.35546875 77.140625 C36.66062945 78.9193164 34.408262 80.31640625 31.1328125 80.31640625 C30.8440625 81.28578125 30.5553125 82.25515625 30.2578125 83.25390625 C29.1328125 86.31640625 29.1328125 86.31640625 27.1328125 87.31640625 C27.6278125 85.33640625 27.6278125 85.33640625 28.1328125 83.31640625 C27.14539063 83.88230469 26.15796875 84.44820313 25.140625 85.03125 C23.84637044 85.77216384 22.55209871 86.5130477 21.2578125 87.25390625 C20.60683594 87.62708984 19.95585938 88.00027344 19.28515625 88.38476562 C14.359375 91.203125 14.359375 91.203125 12.1328125 92.31640625 C16.0928125 92.31640625 20.0528125 92.31640625 24.1328125 92.31640625 C24.1328125 92.97640625 24.1328125 93.63640625 24.1328125 94.31640625 C22.92625 94.33058594 21.7196875 94.34476562 20.4765625 94.359375 C10.43679179 94.16746358 10.43679179 94.16746358 1.6328125 98.19140625 C-0.1171875 99.56640625 -0.1171875 99.56640625 -1.8671875 100.31640625 C-4.45531593 99.40294916 -6.5618111 98.07029373 -8.890625 96.62109375 C-12.06360917 95.23031066 -14.43981735 95.16175645 -17.87060547 95.25756836 C-21.46953347 95.35737752 -24.32578239 95.16440093 -27.8671875 94.31640625 C-30.14847153 91.77720635 -31.64245578 89.37568613 -33.11791992 86.30834961 C-35.23096362 81.96549655 -36.91391214 80.33036196 -41.3046875 78.37890625 C-43.8671875 77.10546875 -43.8671875 77.10546875 -45.8671875 75.31640625 C-46.70173667 71.65656041 -46.80875274 68.40366977 -46.70703125 64.65625 C-46.88451542 60.95505568 -47.87724288 59.35825621 -49.8671875 56.31640625 C-49.5371875 55.65640625 -49.2071875 54.99640625 -48.8671875 54.31640625 C-48.2071875 55.30640625 -47.5471875 56.29640625 -46.8671875 57.31640625 C-46.87878906 56.19105469 -46.89039063 55.06570312 -46.90234375 53.90625 C-46.93559836 49.85761235 -46.90527401 45.81119248 -46.86621094 41.76269531 C-46.86710949 39.51183094 -46.93927561 37.27595901 -47.03125 35.02734375 C-47.05440341 31.17615939 -46.96566533 28.01170404 -45.8671875 24.31640625 C-43.28124516 21.88156238 -40.77298809 20.45710966 -37.60546875 18.8671875 C-33.50648896 16.54579666 -31.92305692 13.41034536 -29.8671875 9.31640625 C-29.2071875 8.32640625 -28.5471875 7.33640625 -27.8671875 6.31640625 C-24.99609375 6.015625 -24.99609375 6.015625 -21.4296875 6.00390625 C-15.91855289 5.78436156 -12.70982939 4.9834566 -8.1171875 1.94140625 C-3.64070815 -0.86801625 -3.64070815 -0.86801625 0 0 Z M-9.796875 10.359375 C-11.48490234 11.35227539 -11.48490234 11.35227539 -13.20703125 12.36523438 C-14.38565326 13.07773377 -15.56403702 13.79062742 -16.7421875 14.50390625 C-17.91196204 15.19861173 -19.08252873 15.89198518 -20.25390625 16.58398438 C-22.48341993 17.90513048 -24.70981913 19.23155085 -26.93261719 20.56396484 C-30.21988214 22.52702539 -33.53258666 24.43522473 -36.8671875 26.31640625 C-36.8671875 26.97640625 -36.8671875 27.63640625 -36.8671875 28.31640625 C-37.8571875 28.31640625 -38.8471875 28.31640625 -39.8671875 28.31640625 C-39.8671875 42.83640625 -39.8671875 57.35640625 -39.8671875 72.31640625 C-33.63206836 76.64716554 -33.63206836 76.64716554 -28.8671875 76.31640625 C-27.49644964 77.95244821 -26.16663494 79.62318686 -24.8671875 81.31640625 C-21.40790955 83.82438276 -20.25465374 84.31640625 -15.8671875 84.31640625 C-15.8671875 84.97640625 -15.8671875 85.63640625 -15.8671875 86.31640625 C-13.34039011 88.18778003 -13.34039011 88.18778003 -10.1796875 90.00390625 C-9.12394531 90.64714844 -8.06820312 91.29039063 -6.98046875 91.953125 C-3.4975301 93.47827631 -2.37951698 93.59412867 1.1328125 92.31640625 C3.84205738 91.04142527 3.84205738 91.04142527 6.4453125 89.44140625 C7.32832031 88.92835937 8.21132812 88.4153125 9.12109375 87.88671875 C9.78496094 87.36851563 10.44882813 86.8503125 11.1328125 86.31640625 C11.1328125 85.32640625 11.1328125 84.33640625 11.1328125 83.31640625 C12.89625 83.09984375 12.89625 83.09984375 14.6953125 82.87890625 C22.06733404 81.05622207 30.1914011 78.40597063 35.1328125 72.31640625 C37.49656977 66.25033073 37.12374662 59.62757266 36.86865234 53.22314453 C36.75759647 50.18549743 36.7862779 47.17172032 36.83203125 44.1328125 C37.00002445 34.07251929 37.00002445 34.07251929 32.70996094 25.39160156 C28.36180657 22.50781396 25.37203325 21.31640625 20.1328125 21.31640625 C18.98681272 20.17040647 17.84765596 19.0162818 16.75390625 17.8203125 C13.36497658 14.6763657 9.15716559 12.54779552 5.1328125 10.31640625 C4.47410156 9.94902344 3.81539062 9.58164062 3.13671875 9.203125 C-2.22679346 6.82979699 -4.75757499 7.35022488 -9.796875 10.359375 Z " fill="#E6E6E0" transform="translate(65.8671875,13.68359375)"/>
<path d="M0 0 C3.96 0 7.92 0 12 0 C12.37511719 1.08796875 12.75023438 2.1759375 13.13671875 3.296875 C15.83501258 11.06366951 18.6568125 18.70141271 21.8984375 26.26171875 C23.57542436 30.43039886 24.79139262 34.6744578 26 39 C22.37 39 18.74 39 15 39 C14.01 35.535 14.01 35.535 13 32 C8.38 32.33 3.76 32.66 -1 33 C-1.66 34.98 -2.32 36.96 -3 39 C-6.63 39 -10.26 39 -14 39 C-11.5814588 30.43192573 -8.50392078 22.17535439 -5.3125 13.875 C-4.79589779 12.52356214 -4.27961945 11.17200042 -3.76367188 9.8203125 C-2.51283904 6.54544107 -1.257653 3.2722593 0 0 Z " fill="#25241F" transform="translate(58,44)"/>
<path d="M0 0 C5.00445885 1.46471966 8.25822241 3.29041281 13 6 C13 21.18 13 36.36 13 52 C11.68 52.33 10.36 52.66 9 53 C9 53.99 9 54.98 9 56 C10.485 56.495 10.485 56.495 12 57 C11.21625 57.20625 10.4325 57.4125 9.625 57.625 C6.69360946 58.79353796 6.69360946 58.79353796 5.8125 62.0625 C5.544375 63.031875 5.27625 64.00125 5 65 C4.01 65.495 4.01 65.495 3 66 C3.495 64.02 3.495 64.02 4 62 C3.01257813 62.56589844 2.02515625 63.13179687 1.0078125 63.71484375 C-0.28644206 64.45575759 -1.58071379 65.19664145 -2.875 65.9375 C-3.52597656 66.31068359 -4.17695312 66.68386719 -4.84765625 67.06835938 C-9.7734375 69.88671875 -9.7734375 69.88671875 -12 71 C-8.04 71 -4.08 71 0 71 C0 71.66 0 72.32 0 73 C-1.2065625 73.01417969 -2.413125 73.02835937 -3.65625 73.04296875 C-13.69602071 72.85105733 -13.69602071 72.85105733 -22.5 76.875 C-24.25 78.25 -24.25 78.25 -26 79 C-28.58812843 78.08654291 -30.6946236 76.75388748 -33.0234375 75.3046875 C-36.79080251 73.65337528 -40.10916978 73.88668912 -44.125 74 C-47.05683341 74.020769 -49.0661956 73.70964274 -52 73 C-55.06059349 69.74452067 -56.59195749 67.02225796 -58.51953125 63.00390625 C-59.80124226 59.77059037 -59.80124226 59.77059037 -63 58 C-63.1875 54.875 -63.1875 54.875 -63 52 C-57.25 53.875 -57.25 53.875 -55 55 C-54.67 54.34 -54.34 53.68 -54 53 C-52.9171875 54.3921875 -52.9171875 54.3921875 -51.8125 55.8125 C-48.53798862 59.73451363 -45.08110688 62.05905428 -40 63 C-40 63.66 -40 64.32 -40 65 C-38.9790625 65.37125 -38.9790625 65.37125 -37.9375 65.75 C-35.55805636 66.76252921 -33.66346502 67.81935691 -31.5 69.1875 C-27.60827813 71.20285597 -27.00079102 71.18205189 -23 70 C-20.5604203 68.94687696 -20.5604203 68.94687696 -18.25 67.625 C-17.47140625 67.20476562 -16.6928125 66.78453125 -15.890625 66.3515625 C-13.69373246 65.06095675 -13.69373246 65.06095675 -13 62 C-10.91796875 61.078125 -10.91796875 61.078125 -8.1875 60.25 C-6.12305385 59.50537369 -4.06080741 58.75463837 -2 58 C-0.95030029 57.67813721 0.09939941 57.35627441 1.1809082 57.0246582 C5.00464543 55.44806602 7.22852404 54.10594158 10 51 C11.993592 44.90883193 11.63900757 38.33453075 11.45458984 32.00268555 C11.37501799 28.938193 11.41316933 25.8909572 11.46484375 22.82617188 C11.80803491 12.87721347 11.80803491 12.87721347 7.67675781 4.32861328 C5.13229764 2.82073507 2.82284326 1.84311582 0 1 C0 0.67 0 0.34 0 0 Z " fill="#E9E8E1" transform="translate(90,35)"/>
<path d="M0 0 C-1.375 1.5 -1.375 1.5 -3 3 C-3.66 3 -4.32 3 -5 3 C-5.495 3.825 -5.99 4.65 -6.5 5.5 C-6.995 6.325 -7.49 7.15 -8 8 C-8.66 8 -9.32 8 -10 8 C-10 23.18 -10 38.36 -10 54 C-9.34 54 -8.68 54 -8 54 C-8 55.65 -8 57.3 -8 59 C-12.75 57.125 -12.75 57.125 -15 56 C-15.36143979 52.50455695 -15.44472324 49.02724462 -15.55859375 45.515625 C-16.0176494 41.85942955 -17.03579009 40.04206327 -19 37 C-18.67 36.34 -18.34 35.68 -18 35 C-17.34 35.99 -16.68 36.98 -16 38 C-16.01160156 36.87464844 -16.02320313 35.74929687 -16.03515625 34.58984375 C-16.06704902 30.54433508 -16.04891263 26.50050335 -16.01220703 22.45507812 C-16.00441865 20.88867903 -16.00929194 19.32213069 -16.03076172 17.75585938 C-16.18036972 6.38565141 -16.18036972 6.38565141 -13.29296875 2.99609375 C-11.20166891 1.63422688 -9.37581787 0.74933031 -7 0 C-6.31550781 -0.21914063 -5.63101562 -0.43828125 -4.92578125 -0.6640625 C-3 -1 -3 -1 0 0 Z " fill="#F0F1EA" transform="translate(35,33)"/>
<path d="M0 0 C1.32 0.33 2.64 0.66 4 1 C3.99097656 1.79921875 3.98195313 2.5984375 3.97265625 3.421875 C4.19440883 11.63636195 5.9520654 16.6332109 10.69921875 23.34375 C12 26 12 26 11.20703125 28.84375 C10.80871094 29.5553125 10.41039063 30.266875 10 31 C9 29 9 29 8.625 26.75 C7.89109785 23.52083053 6.51513814 20.93304817 5 18 C5.00523682 18.60360352 5.01047363 19.20720703 5.01586914 19.82910156 C5.22131754 47.11472983 5.22131754 47.11472983 4 52 C0.81237635 54.12508244 -1.26512223 54.5020163 -5 55 C-4.67 53.68 -4.34 52.36 -4 51 C-2.02 50.505 -2.02 50.505 0 50 C-0.01474869 49.41784225 -0.02949738 48.83568451 -0.04469299 48.23588562 C-0.19693168 42.18547669 -0.34173014 36.1349224 -0.48217773 30.08422852 C-0.53559999 27.8250678 -0.59092952 25.56595137 -0.64819336 23.30688477 C-0.73009772 20.06275988 -0.80517779 16.81853845 -0.87890625 13.57421875 C-0.90594131 12.56163498 -0.93297638 11.54905121 -0.96083069 10.50578308 C-0.98092697 9.56503433 -1.00102325 8.62428558 -1.02172852 7.6550293 C-1.04171402 6.82674118 -1.06169952 5.99845306 -1.08229065 5.14506531 C-1 3 -1 3 0 0 Z " fill="#ECEBE4" transform="translate(103,37)"/>
<path d="M0 0 C5.00445885 1.46471966 8.25822241 3.29041281 13 6 C13 21.18 13 36.36 13 52 C11.02 52.495 11.02 52.495 9 53 C9 53.99 9 54.98 9 56 C10.485 56.495 10.485 56.495 12 57 C11.21625 57.20625 10.4325 57.4125 9.625 57.625 C6.69360946 58.79353796 6.69360946 58.79353796 5.8125 62.0625 C5.544375 63.031875 5.27625 64.00125 5 65 C4.01 65.495 4.01 65.495 3 66 C3.33 64.68 3.66 63.36 4 62 C3.06027344 62.54140625 3.06027344 62.54140625 2.1015625 63.09375 C1.28429687 63.5578125 0.46703125 64.021875 -0.375 64.5 C-1.59316406 65.19609375 -1.59316406 65.19609375 -2.8359375 65.90625 C-5 67 -5 67 -7 67 C-6.67 65.68 -6.34 64.36 -6 63 C-8.97 63.99 -8.97 63.99 -12 65 C-12 65.66 -12 66.32 -12 67 C-15.465 67.99 -15.465 67.99 -19 69 C-17.36587557 67.29159719 -16.13093906 66.06546953 -14 65 C-13.67 64.01 -13.34 63.02 -13 62 C-10.91796875 61.078125 -10.91796875 61.078125 -8.1875 60.25 C-6.12305385 59.50537369 -4.06080741 58.75463837 -2 58 C-0.42545044 57.51720581 -0.42545044 57.51720581 1.1809082 57.0246582 C5.00464543 55.44806602 7.22852404 54.10594158 10 51 C11.993592 44.90883193 11.63900757 38.33453075 11.45458984 32.00268555 C11.37501799 28.938193 11.41316933 25.8909572 11.46484375 22.82617188 C11.80803491 12.87721347 11.80803491 12.87721347 7.67675781 4.32861328 C5.13229764 2.82073507 2.82284326 1.84311582 0 1 C0 0.67 0 0.34 0 0 Z " fill="#9A9991" transform="translate(90,35)"/>
<path d="M0 0 C5.445 0.495 5.445 0.495 11 1 C6.25 5 6.25 5 4 5 C4 6.65 4 8.3 4 10 C6.27767004 9.01250173 6.27767004 9.01250173 8.375 6.375 C9.674375 5.199375 9.674375 5.199375 11 4 C13.48185976 4.14182056 14.79246904 4.89623452 17 6 C13.0457735 8.34034723 9.08596494 10.6710785 5.125 13 C3.99707031 13.66773438 2.86914062 14.33546875 1.70703125 15.0234375 C0.09248047 15.97089844 0.09248047 15.97089844 -1.5546875 16.9375 C-2.54968262 17.52402344 -3.54467773 18.11054687 -4.56982422 18.71484375 C-7 20 -7 20 -9 20 C-9 20.66 -9 21.32 -9 22 C-9.99 22 -10.98 22 -12 22 C-11.67 36.85 -11.34 51.7 -11 67 C-11.66 67 -12.32 67 -13 67 C-13 51.82 -13 36.64 -13 21 C-12.34 20.67 -11.68 20.34 -11 20 C-10.54625 19.195625 -10.0925 18.39125 -9.625 17.5625 C-7.92131672 14.87592252 -6.91346909 14.10510897 -4 13 C-5.32 12.67 -6.64 12.34 -8 12 C-7.4225 11.319375 -6.845 10.63875 -6.25 9.9375 C-3.80164486 6.74103635 -1.93549485 3.52536562 0 0 Z " fill="#8C8D86" transform="translate(38,20)"/>
<path d="M0 0 C0.33 0 0.66 0 1 0 C1 14.85 1 29.7 1 45 C1.66 45 2.32 45 3 45 C3 46.65 3 48.3 3 50 C-1.75 48.125 -1.75 48.125 -4 47 C-4.36143979 43.50455695 -4.44472324 40.02724462 -4.55859375 36.515625 C-5.0176494 32.85942955 -6.03579009 31.04206327 -8 28 C-7.67 27.34 -7.34 26.68 -7 26 C-6.34 26.99 -5.68 27.98 -5 29 C-4.34 28.34 -3.68 27.68 -3 27 C-2.01 27 -1.02 27 0 27 C0 18.09 0 9.18 0 0 Z " fill="#E7E9E1" transform="translate(24,42)"/>
<path d="M0 0 C2.97 0.99 5.94 1.98 9 3 C9 3.66 9 4.32 9 5 C10.0828125 5.4021875 10.0828125 5.4021875 11.1875 5.8125 C13.97590126 6.98982498 16.44095724 8.39145884 19 10 C18.01 10.495 18.01 10.495 17 11 C16.21625 10.505 15.4325 10.01 14.625 9.5 C12.16167525 7.73956166 12.16167525 7.73956166 9.6875 8.3125 C9.130625 8.539375 8.57375 8.76625 8 9 C8 9.66 8 10.32 8 11 C8.66 11.33 9.32 11.66 10 12 C5.90207437 12.47057519 2.07758358 12.71052822 -2 12 C-4.56111609 9.70599417 -5.88351983 7.23259955 -7 4 C-7 3.34 -7 2.68 -7 2 C-5.8553125 2.495 -5.8553125 2.495 -4.6875 3 C-2.00930865 4.17436686 -2.00930865 4.17436686 1 4 C0.67 2.68 0.34 1.36 0 0 Z " fill="#B7B6B0" transform="translate(41,95)"/>
<path d="M0 0 C5.75 1.875 5.75 1.875 8 3 C8.33 2.34 8.66 1.68 9 1 C14 6.5 14 6.5 14 11 C14.66 11.33 15.32 11.66 16 12 C15.34 12.66 14.68 13.32 14 14 C10.535 12.02 10.535 12.02 7 10 C7.680625 11.093125 8.36125 12.18625 9.0625 13.3125 C10.22265625 15.17578125 10.22265625 15.17578125 11 17 C10.67 17.99 10.34 18.98 10 20 C9.29423828 18.73542969 9.29423828 18.73542969 8.57421875 17.4453125 C7.95160156 16.34960938 7.32898437 15.25390625 6.6875 14.125 C6.07261719 13.03445312 5.45773438 11.94390625 4.82421875 10.8203125 C3.13942354 7.80595155 3.13942354 7.80595155 0 6 C-0.1875 2.875 -0.1875 2.875 0 0 Z " fill="#D8D7D2" transform="translate(27,87)"/>
<path d="M0 0 C-0.1875 2.3125 -0.1875 2.3125 -1 5 C-3.475 6.485 -3.475 6.485 -6 8 C-2.04 8 1.92 8 6 8 C6 8.66 6 9.32 6 10 C4.75863281 10.06058594 3.51726562 10.12117188 2.23828125 10.18359375 C0.59634423 10.26803623 -1.04558232 10.35268236 -2.6875 10.4375 C-3.50412109 10.47681641 -4.32074219 10.51613281 -5.16210938 10.55664062 C-9.19655811 10.76898003 -13.05747309 11.04447922 -17 12 C-15.49616703 7.78926767 -12.79335044 6.16762883 -9 4 C-8.01 4 -7.02 4 -6 4 C-6 3.34 -6 2.68 -6 2 C-2.25 0 -2.25 0 0 0 Z " fill="#EBECE4" transform="translate(84,98)"/>
<path d="M0 0 C0.66 0.33 1.32 0.66 2 1 C1.38302681 2.48253267 0.75616104 3.96095174 0.125 5.4375 C-0.22304687 6.26121094 -0.57109375 7.08492188 -0.9296875 7.93359375 C-2 10 -2 10 -4 11 C-6.2072923 11.07092842 -8.41667452 11.08415025 -10.625 11.0625 C-11.81351562 11.05347656 -13.00203125 11.04445313 -14.2265625 11.03515625 C-15.14179687 11.02355469 -16.05703125 11.01195313 -17 11 C-13.44145169 8.03344679 -9.8017732 5.54141897 -5.8125 3.1875 C-4.76707031 2.56230469 -3.72164062 1.93710938 -2.64453125 1.29296875 C-1.33548828 0.65294922 -1.33548828 0.65294922 0 0 Z " fill="#2A2A26" transform="translate(93,96)"/>
<path d="M0 0 C0.33 0.99 0.66 1.98 1 3 C-3.30769231 6.07692308 -3.30769231 6.07692308 -6.8125 5.6875 C-7.534375 5.460625 -8.25625 5.23375 -9 5 C-10.98 7.97 -10.98 7.97 -13 11 C-13.99 10.67 -14.98 10.34 -16 10 C-15.8125 7.6875 -15.8125 7.6875 -15 5 C-12.4375 3.1875 -12.4375 3.1875 -10 2 C-12.64 1.67 -15.28 1.34 -18 1 C-18 0.67 -18 0.34 -18 0 C-15.93831015 -0.19620767 -13.87559002 -0.38160753 -11.8125 -0.5625 C-10.08966797 -0.71912109 -10.08966797 -0.71912109 -8.33203125 -0.87890625 C-5.31368801 -0.98859985 -2.91076064 -0.74002389 0 0 Z " fill="#EAECE2" transform="translate(57,20)"/>
<path d="M0 0 C5.92421053 5.92421053 5.92421053 5.92421053 6.0703125 9.92578125 C5.66547209 14.22518642 4.7113693 17.52944729 2 21 C1.34 21 0.68 21 0 21 C0 14.07 0 7.14 0 0 Z " fill="#494842" transform="translate(107,54)"/>
<path d="M0 0 C0.86963379 0.23771118 0.86963379 0.23771118 1.75683594 0.48022461 C5.21220398 1.28088618 8.71910303 1.37223082 12.25 1.5625 C12.99507812 1.60568359 13.74015625 1.64886719 14.5078125 1.69335938 C16.338349 1.79896725 18.16915176 1.89994201 20 2 C19.67 2.66 19.34 3.32 19 4 C16.03 4 13.06 4 10 4 C10.66 4.66 11.32 5.32 12 6 C11.625 8.125 11.625 8.125 11 10 C10.34 10 9.68 10 9 10 C9 9.01 9 8.02 9 7 C8.0925 7.04125 7.185 7.0825 6.25 7.125 C3.1217954 7.00468444 1.61385994 6.6085292 -1 5 C-0.67 3.35 -0.34 1.7 0 0 Z " fill="#EFF0E9" transform="translate(70,18)"/>
<path d="M0 0 C0.66 0 1.32 0 2 0 C2 5.94 2 11.88 2 18 C-4.51351351 11.48648649 -4.51351351 11.48648649 -5 8 C-3.69461406 5.06013924 -2.10419633 2.43675609 0 0 Z " fill="#787976" transform="translate(18,55)"/>
<path d="M0 0 C4.02316219 1.48536044 7.61292642 3.39876893 11.3125 5.5625 C12.38113281 6.18253906 13.44976562 6.80257812 14.55078125 7.44140625 C15.76314453 8.21291016 15.76314453 8.21291016 17 9 C17 9.33 17 9.66 17 10 C12.90207437 10.47057519 9.07758358 10.71052822 5 10 C2.43888391 7.70599417 1.11648017 5.23259955 0 2 C0 1.34 0 0.68 0 0 Z " fill="#292723" transform="translate(34,97)"/>
<path d="M0 0 C10.03144654 -0.62264151 10.03144654 -0.62264151 13.625 1.6875 C15.10176021 4.17114217 15.68207686 6.13869171 16 9 C10.0942118 7.44584521 5.02261107 4.40465533 0 1 C0 0.67 0 0.34 0 0 Z " fill="#242420" transform="translate(78,21)"/>
<path d="M0 0 C1.98 0.495 1.98 0.495 4 1 C4 5.62 4 10.24 4 15 C3.01 15.495 3.01 15.495 2 16 C1.34 16.66 0.68 17.32 0 18 C-0.19484938 15.56288386 -0.38115178 13.12562602 -0.5625 10.6875 C-0.64661133 9.65206055 -0.64661133 9.65206055 -0.73242188 8.59570312 C-0.96581505 5.37487726 -1.03224218 3.09672655 0 0 Z " fill="#F5F4ED" transform="translate(103,37)"/>
<path d="M0 0 C2.64 0.33 5.28 0.66 8 1 C8 1.99 8 2.98 8 4 C8.66 3.67 9.32 3.34 10 3 C10.33 2.01 10.66 1.02 11 0 C13.475 0.99 13.475 0.99 16 2 C15.67 2.61875 15.34 3.2375 15 3.875 C13.85806765 5.91018344 13.85806765 5.91018344 14 8 C16.475 8.99 16.475 8.99 19 10 C17.02 10.99 17.02 10.99 15 12 C14.38125 11.29875 13.7625 10.5975 13.125 9.875 C9.88497328 6.58801637 6.00243383 4.49480923 2.01171875 2.234375 C1.34785156 1.82703125 0.68398437 1.4196875 0 1 C0 0.67 0 0.34 0 0 Z " fill="#BDBDB6" transform="translate(71,24)"/>
<path d="M0 0 C0.66 0 1.32 0 2 0 C2.99 3.63 3.98 7.26 5 11 C2.36 11 -0.28 11 -3 11 C-2.01 7.37 -1.02 3.74 0 0 Z " fill="#E1E2DD" transform="translate(63,57)"/>
<path d="M0 0 C3.3 0 6.6 0 10 0 C6.20182235 3.22269618 2.42608146 5.74520378 -2 8 C-2.66 7.67 -3.32 7.34 -4 7 C-2.68 4.69 -1.36 2.38 0 0 Z " fill="#1F201B" transform="translate(39,21)"/>
<path d="M0 0 C0.66 0.33 1.32 0.66 2 1 C0.68 2.65 -0.64 4.3 -2 6 C-1.34 6.33 -0.68 6.66 0 7 C-1.98 7.99 -3.96 8.98 -6 10 C-7.32 9.01 -8.64 8.02 -10 7 C-8.35 7 -6.7 7 -5 7 C-6.32 5.35 -7.64 3.7 -9 2 C-7.88625 1.855625 -6.7725 1.71125 -5.625 1.5625 C-2.17857953 1.21627965 -2.17857953 1.21627965 0 0 Z " fill="#B2B1AA" transform="translate(69,104)"/>
<path d="M0 0 C2.55293014 2.45996629 4.34243046 4.84272469 6 8 C6 8.99 6 9.98 6 11 C4.33388095 11.042721 2.66617115 11.04063832 1 11 C0 10 0 10 -0.09765625 7.71484375 C-0.08605469 6.79832031 -0.07445313 5.88179687 -0.0625 4.9375 C-0.05347656 4.01839844 -0.04445313 3.09929688 -0.03515625 2.15234375 C-0.02355469 1.44207031 -0.01195313 0.73179688 0 0 Z " fill="#191812" transform="translate(107,54)"/>
<path d="M0 0 C1.33333333 0.66666667 2.66666667 1.33333333 4 2 C4.969375 2.12375 5.93875 2.2475 6.9375 2.375 C10.55200455 3.11265399 12.30516224 4.54294204 15 7 C14.01 7.33 13.02 7.66 12 8 C11.608125 7.484375 11.21625 6.96875 10.8125 6.4375 C9.07326198 4.7229216 9.07326198 4.7229216 6.625 5.1875 C4.01420816 5.99560224 1.51158119 6.92360806 -1 8 C-0.67 7.34 -0.34 6.68 0 6 C0.66 6 1.32 6 2 6 C0.68 4.35 -0.64 2.7 -2 1 C-1.34 0.67 -0.68 0.34 0 0 Z " fill="#95968E" transform="translate(56,17)"/>
<path d="M0 0 C3.465 1.485 3.465 1.485 7 3 C7 3.99 7 4.98 7 6 C7.66 6.33 8.32 6.66 9 7 C8.34 7.66 7.68 8.32 7 9 C4.36 7.35 1.72 5.7 -1 4 C-0.67 2.68 -0.34 1.36 0 0 Z " fill="#EFEDE7" transform="translate(34,92)"/>
<path d="M0 0 C-1.28813342 0.83878455 -2.58063256 1.67086783 -3.875 2.5 C-4.59429687 2.9640625 -5.31359375 3.428125 -6.0546875 3.90625 C-8 5 -8 5 -10 5 C-10 5.66 -10 6.32 -10 7 C-12.31 7.66 -14.62 8.32 -17 9 C-15.36587557 7.29159719 -14.13093906 6.06546953 -12 5 C-11.67 4.01 -11.34 3.02 -11 2 C-9.00390625 1.015625 -9.00390625 1.015625 -6.5625 0.25 C-5.75941406 -0.01296875 -4.95632812 -0.2759375 -4.12890625 -0.546875 C-2 -1 -2 -1 0 0 Z " fill="#8A8980" transform="translate(88,95)"/>
<path d="M0 0 C3.75 0.1875 3.75 0.1875 7 1 C4.72254211 3.48982535 2.37664762 5.10368997 -0.5625 6.75 C-1.34753906 7.19859375 -2.13257813 7.6471875 -2.94140625 8.109375 C-3.62074219 8.40328125 -4.30007812 8.6971875 -5 9 C-5.66 8.67 -6.32 8.34 -7 8 C-6.5875 7.608125 -6.175 7.21625 -5.75 6.8125 C-3.8480888 4.96343429 -3.8480888 4.96343429 -2.25 2.25 C-1.5075 1.5075 -0.765 0.765 0 0 Z " fill="#9D9F92" transform="translate(48,24)"/>
<path d="M0 0 C-0.33 1.32 -0.66 2.64 -1 4 C-4.63 4 -8.26 4 -12 4 C-7.99899414 0.12023674 -5.51903037 -0.43286513 0 0 Z " fill="#1F241C" transform="translate(88,103)"/>
<path d="M0 0 C5.75 1.875 5.75 1.875 8 3 C8.33 2.34 8.66 1.68 9 1 C10.65 2.98 12.3 4.96 14 7 C12 8 12 8 10.0625 7.75 C7.70494545 6.89270744 6.75236968 5.75236968 5 4 C3.948125 3.7525 3.948125 3.7525 2.875 3.5 C2.25625 3.335 1.6375 3.17 1 3 C0.67 2.01 0.34 1.02 0 0 Z " fill="#96958D" transform="translate(27,87)"/>
<path d="M0 0 C0.33 0 0.66 0 1 0 C1 3.96 1 7.92 1 12 C-0.32 10.68 -1.64 9.36 -3 8 C-2.82813436 4.47675428 -1.98272184 2.97408276 0 0 Z " fill="#222320" transform="translate(18,58)"/>
<path d="M0 0 C-2.3125 1.125 -2.3125 1.125 -5 2 C-5.99 1.34 -6.98 0.68 -8 0 C-8.66 0 -9.32 0 -10 0 C-10 0.66 -10 1.32 -10 2 C-11.32 1.67 -12.64 1.34 -14 1 C-8.13356407 -2.74800073 -5.90211654 -3.93474436 0 0 Z " fill="#B3B2AA" transform="translate(102,92)"/>
<path d="M0 0 C0.99 0.66 1.98 1.32 3 2 C2.50168276 5.68754757 1.89932357 7.60490662 -1 10 C-0.67 8.68 -0.34 7.36 0 6 C-0.66 6 -1.32 6 -2 6 C-2 4.35 -2 2.7 -2 1 C-1.34 0.67 -0.68 0.34 0 0 Z " fill="#DFDFD7" transform="translate(94,91)"/>
<path d="M0 0 C1.98 0.495 1.98 0.495 4 1 C4.33 2.32 4.66 3.64 5 5 C4.01 5.33 3.02 5.66 2 6 C1.01 5.01 0.02 4.02 -1 3 C-0.67 2.01 -0.34 1.02 0 0 Z " fill="#F1F2EB" transform="translate(85,27)"/>
<path d="M0 0 C2.64 0.33 5.28 0.66 8 1 C8.33 1.99 8.66 2.98 9 4 C10.49985609 5.66710346 10.49985609 5.66710346 12 7 C7.39104317 5.68315519 3.85859765 3.84801255 0 1 C0 0.67 0 0.34 0 0 Z " fill="#87897E" transform="translate(71,24)"/>
<path d="M0 0 C0.66 0.33 1.32 0.66 2 1 C0.68 3.97 -0.64 6.94 -2 10 C-3 8 -3 8 -3 5 C-3.66 4.34 -4.32 3.68 -5 3 C-2.625 1.4375 -2.625 1.4375 0 0 Z " fill="#62615C" transform="translate(93,96)"/>
<path d="M0 0 C2.89932357 2.39509338 3.50168276 4.31245243 4 8 C1.97954558 7.39816251 -0.02111039 6.72693904 -2 6 C-2.33 5.34 -2.66 4.68 -3 4 C-2.34 4 -1.68 4 -1 4 C-0.67 2.68 -0.34 1.36 0 0 Z " fill="#5F5F5A" transform="translate(90,22)"/>
<path d="M0 0 C0.763125 0.20625 1.52625 0.4125 2.3125 0.625 C1.6525 1.945 0.9925 3.265 0.3125 4.625 C-1.3375 4.625 -2.9875 4.625 -4.6875 4.625 C-5.0175 3.635 -5.3475 2.645 -5.6875 1.625 C-2.6875 -0.375 -2.6875 -0.375 0 0 Z " fill="#F2F2EE" transform="translate(62.6875,15.375)"/>
<path d="M0 0 C2.31 0 4.62 0 7 0 C1.85714286 4.42857143 1.85714286 4.42857143 -2 5 C-1.34 3.35 -0.68 1.7 0 0 Z " fill="#30302D" transform="translate(37,24)"/>
<path d="M0 0 C2.475 0.99 2.475 0.99 5 2 C5 2.66 5 3.32 5 4 C3.02 4 1.04 4 -1 4 C-1 1 -1 1 0 0 Z " fill="#F2F0EB" transform="translate(59,107)"/>
<path d="M0 0 C0.66 0 1.32 0 2 0 C2.66 2.64 3.32 5.28 4 8 C2.35 7.01 0.7 6.02 -1 5 C-0.67 3.35 -0.34 1.7 0 0 Z " fill="#D2D2CA" transform="translate(63,57)"/>
<path d="M0 0 C2.72426311 2.35277269 3.8141763 4.62496331 5 8 C4.01 8.33 3.02 8.66 2 9 C0.14223235 5.86501708 -0.20140476 3.62528568 0 0 Z " fill="#25231D" transform="translate(107,54)"/>
<path d="M0 0 C1.32 0 2.64 0 4 0 C3.67 1.65 3.34 3.3 3 5 C1.68 5.33 0.36 5.66 -1 6 C-0.67 4.02 -0.34 2.04 0 0 Z " fill="#F0F2E8" transform="translate(42,25)"/>
<path d="M0 0 C0 1.98 0 3.96 0 6 C-0.99 6.495 -0.99 6.495 -2 7 C-2.12375 6.360625 -2.2475 5.72125 -2.375 5.0625 C-2.684375 4.0415625 -2.684375 4.0415625 -3 3 C-3.66 2.67 -4.32 2.34 -5 2 C-2 0 -2 0 0 0 Z " fill="#E3E4DC" transform="translate(42,26)"/>
</svg>
