<?xml version="1.0" encoding="UTF-8"?>
<svg version="1.1" xmlns="http://www.w3.org/2000/svg" width="256" height="256">
<path d="M0 0 C15.26055723 12.39262492 20.74254304 28.93887647 22.85928154 48.01829338 C23.95364927 59.04943488 23.74671052 70.1231733 23.6953125 81.1953125 C23.69157297 83.59097169 23.68873045 85.98663242 23.68673706 88.3822937 C23.67917456 94.62596002 23.65959125 100.86953028 23.6373291 107.11315918 C23.6167098 113.50901999 23.60770127 119.90489663 23.59765625 126.30078125 C23.57633696 138.80472923 23.54229245 151.30860657 23.5 163.8125 C15.97030348 163.83776648 8.4406178 163.85533141 0.91088867 163.86743164 C-1.65291757 163.8724737 -4.21672091 163.87930714 -6.78051758 163.88793945 C-10.45655021 163.90001064 -14.13254498 163.90572942 -17.80859375 163.91015625 C-18.96274277 163.91531754 -20.11689178 163.92047882 -21.30601501 163.92579651 C-22.8975515 163.92590981 -22.8975515 163.92590981 -24.52124023 163.92602539 C-25.93021828 163.92935631 -25.93021828 163.92935631 -27.36766052 163.93275452 C-29.5 163.8125 -29.5 163.8125 -30.5 162.8125 C-30.61468723 159.9292048 -30.66486269 157.06889976 -30.67358398 154.18457031 C-30.680271 153.27871689 -30.68695801 152.37286346 -30.69384766 151.43955994 C-30.70793939 149.46322243 -30.71982016 147.48686825 -30.72979546 145.51050568 C-30.74618512 142.37313421 -30.76942902 139.23588356 -30.79469299 136.09857178 C-30.86547635 127.17466264 -30.92523478 118.2507004 -30.97680664 109.32666016 C-31.00881 103.87244526 -31.05015386 98.41836286 -31.09700203 92.96425629 C-31.11291436 90.89287483 -31.12528494 88.82146277 -31.13390923 86.75003815 C-30.74759191 63.65842884 -30.74759191 63.65842884 -39.5 42.8125 C-42.02678758 40.82022518 -44.41896341 39.69190518 -47.5 38.8125 C-48.14324219 38.62429687 -48.78648437 38.43609375 -49.44921875 38.2421875 C-57.55637938 36.54354432 -66.48526087 37.65071739 -73.75 41.5625 C-82.25922789 48.52459555 -85.22899255 57.04612669 -86.5 67.8125 C-86.65064149 70.97902295 -86.67405869 74.14225766 -86.68945312 77.31201172 C-86.69774643 78.23801682 -86.70603973 79.16402191 -86.71458435 80.11808777 C-86.73190724 82.11726096 -86.74709479 84.11645358 -86.76036072 86.11565781 C-86.78147197 89.27541015 -86.80848284 92.43506377 -86.83703613 95.59475708 C-86.90669072 103.43427583 -86.96642457 111.27386405 -87.02606201 119.11346436 C-87.07690173 125.75332156 -87.13166331 132.39312275 -87.19187927 139.03290176 C-87.21852568 142.15341807 -87.23928827 145.27393948 -87.2598877 148.39450073 C-87.27647975 150.29278824 -87.29335061 152.19107334 -87.31054688 154.08935547 C-87.31473129 154.96308304 -87.31891571 155.83681061 -87.32322693 156.73701477 C-87.38614318 162.69864318 -87.38614318 162.69864318 -88.5 163.8125 C-90.12127423 163.91111598 -91.74682368 163.94048767 -93.37109375 163.94189453 C-94.92775757 163.94662277 -94.92775757 163.94662277 -96.51586914 163.95144653 C-98.20957642 163.94841019 -98.20957642 163.94841019 -99.9375 163.9453125 C-101.66311157 163.94674759 -101.66311157 163.94674759 -103.42358398 163.94821167 C-105.86149144 163.94889369 -108.2994007 163.9470379 -110.73730469 163.94287109 C-114.48376518 163.93752317 -118.23010577 163.94281539 -121.9765625 163.94921875 C-124.33854193 163.94855797 -126.70052129 163.94727682 -129.0625 163.9453125 C-130.19163818 163.94733673 -131.32077637 163.94936096 -132.48413086 163.95144653 C-134.04079468 163.94671829 -134.04079468 163.94671829 -135.62890625 163.94189453 C-136.54744385 163.94109894 -137.46598145 163.94030334 -138.41235352 163.93948364 C-140.5 163.8125 -140.5 163.8125 -141.5 162.8125 C-141.59696917 160.63557389 -141.62186746 158.45543607 -141.62025452 156.27635193 C-141.62153615 155.23988977 -141.62153615 155.23988977 -141.62284368 154.18248898 C-141.62450047 151.8500678 -141.6189739 149.51771737 -141.61352539 147.18530273 C-141.61324354 145.52015179 -141.61340122 143.85500072 -141.6139679 142.18984985 C-141.61425594 137.65491894 -141.60835816 133.12001424 -141.60139394 128.58508945 C-141.59516148 123.85116631 -141.59455669 119.11724264 -141.59336853 114.38331604 C-141.59025489 105.412479 -141.58204108 96.44165408 -141.57201904 87.47082239 C-141.5608589 77.26059608 -141.5553477 67.0503692 -141.55032361 56.84013832 C-141.53985849 35.83091727 -141.52151261 14.82171284 -141.5 -6.1875 C-124.34 -6.1875 -107.18 -6.1875 -89.5 -6.1875 C-89.005 3.2175 -89.005 3.2175 -88.5 12.8125 C-87.30375 11.348125 -86.1075 9.88375 -84.875 8.375 C-64.38500719 -14.1960077 -24.70572521 -18.13148986 0 0 Z " fill="#FFFFFF" transform="translate(231.5,91.1875)"/>
<path d="M0 0 C17.49 0 34.98 0 53 0 C53 55.77 53 111.54 53 169 C35.51 169 18.02 169 0 169 C0 113.23 0 57.46 0 0 Z " fill="#FFFFFF" transform="translate(5,85)"/>
<path d="M0 0 C6.36817288 5.88728111 10.66065425 13.76117552 11.375 22.4375 C11.60355665 31.33692466 8.37739882 38.70550699 3.0625 45.75 C-3.52533445 52.33783445 -10.33258658 55.01069247 -19.5 55.75 C-28.97318936 55.47027984 -36.78379635 51.60679855 -43.25 44.8125 C-49.04657814 37.84632405 -51.42734761 30.58190118 -51.06640625 21.5234375 C-49.84015886 12.95055754 -46.21226174 5.87376962 -39.8046875 0.05859375 C-28.20531111 -8.5681826 -11.57409742 -8.94591809 0 0 Z " fill="#FFFFFF" transform="translate(51.625,7.5625)"/>
</svg>
